HIERARCHY
ROOT Hips
{
   OFFSET 0.00000 0.00000 0.00000
   CHANNELS 6 Xposition Yposition Zposition Zrotation Xrotation Yrotation
   JOINT Spine
   {
      OFFSET 0.000000 11.890501 0.000000
      CHANNELS 3 Zrotation Xrotation Yrotation
      JOINT Spine1
      {
         OFFSET -0.000000 25.657401 0.127660
         CHANNELS 3 Zrotation Xrotation Yrotation
         JOINT HEad
         {
            OFFSET 0.000000 8.734161 0.011340
            CHANNELS 3 Zrotation Xrotation Yrotation
            End Site
            {
               OFFSET -0.290000 12.774200 2.513950
            }
         }
         JOINT LeftShoulder1
         {
            OFFSET 8.990000 -0.362250 -0.220000
            CHANNELS 3 Zrotation Xrotation Yrotation
            JOINT LeftArm
            {
               OFFSET 10.282700 -0.003380 0.322120
               CHANNELS 3 Zrotation Xrotation Yrotation
               JOINT LeftForeArm
               {
                  OFFSET 32.766900 0.099140 -1.424340
                  CHANNELS 3 Zrotation Xrotation Yrotation
                  JOINT LeftHand
                  {
                     OFFSET 27.564301 0.085360 1.022160
                     CHANNELS 3 Zrotation Xrotation Yrotation
                     End Site
                     {
                        OFFSET 16.744301 -0.600000 1.502910
                     }
                  }
               }
            }
         }
         JOINT RightShoulder
         {
            OFFSET -8.990000 -0.362250 -0.220000
            CHANNELS 3 Zrotation Xrotation Yrotation
            JOINT RightArm
            {
               OFFSET -10.282700 -0.003380 0.322120
               CHANNELS 3 Zrotation Xrotation Yrotation
               JOINT RightForeArm
               {
                  OFFSET -32.897098 0.099140 -1.424340
                  CHANNELS 3 Zrotation Xrotation Yrotation
                  JOINT RightHand
                  {
                     OFFSET -27.492101 0.085360 1.022160
                     CHANNELS 3 Zrotation Xrotation Yrotation
                     End Site
                     {
                        OFFSET -16.631201 -0.600000 1.502910
                     }
                  }
               }
            }
         }
      }
   }
   JOINT LeftUpLeg
   {
      OFFSET 8.945800 -8.667070 0.101650
      CHANNELS 3 Zrotation Xrotation Yrotation
      JOINT LeftLeg
      {
         OFFSET 0.000000 -44.422697 1.372700
         CHANNELS 3 Zrotation Xrotation Yrotation
         JOINT LeftFoot
         {
            OFFSET -0.253550 -42.092399 -1.460590
            CHANNELS 3 Zrotation Xrotation Yrotation
            JOINT LeftToes
            {
               OFFSET -0.040000 -4.415090 8.499099
               CHANNELS 3 Zrotation Xrotation Yrotation
               End Site
               {
                  OFFSET 0.080000 -0.047450 9.779790
               }
            }
         }
      }
   }
   JOINT RightUpLeg
   {
      OFFSET -8.945800 -8.667070 0.101650
      CHANNELS 3 Zrotation Xrotation Yrotation
      JOINT RightLeg
      {
         OFFSET 0.000000 -44.422697 1.372700
         CHANNELS 3 Zrotation Xrotation Yrotation
         JOINT RightFoot
         {
            OFFSET 0.253550 -42.092399 -1.460590
            CHANNELS 3 Zrotation Xrotation Yrotation
            JOINT RightToes
            {
               OFFSET 0.040000 -4.415090 8.499099
               CHANNELS 3 Zrotation Xrotation Yrotation
               End Site
               {
                  OFFSET -0.080000 -0.137450 9.779790
               }
            }
         }
      }
   }
}
MOTION
Frames: 15
Frame Time: 0.016670
50.081243 87.677868 17.878463 39.791593 49.420633 85.260275 -26.779048 31.611833 28.998548 -7.394756 50.023633 5.371973 -25.353088 -2.080718 6.191642 -0.974495 -10.358842 -43.315451 82.178288 -78.111655 85.061796 -33.113932 -13.100986 -44.631133 -54.273520 -43.592692 -51.879924 -57.412289 48.644559 86.594737 142.870427 92.351964 148.823688 4.365375 187.274607 78.401023 -0.014075 -12.252257 41.816716 20.055124 4.101490 52.947917 -16.849844 49.112263 163.529837 -19.743029 31.339169 -30.315651 31.320983 -31.638748 -84.477234 -34.690910 14.994239 22.625333 13.855699 27.162602 -10.620083 31.792820 23.417427 8.175224 -104.708330 -13.626454 -34.979673
49.758176 89.140147 17.478950 32.457739 46.316527 87.442179 -30.064287 31.038213 31.511235 -6.918489 50.500496 3.251819 -22.818986 -2.455354 4.828966 4.815133 -5.491034 -39.018265 98.546605 -80.315423 103.832700 -23.317438 -12.672247 -47.826668 -52.653686 -44.876908 -50.368561 -54.329582 48.263179 84.163763 137.420442 90.674292 152.532331 5.722076 185.594736 77.233785 -0.820554 -13.636667 43.545308 20.685716 3.345581 56.553434 -18.920088 45.952700 154.208213 -18.619985 29.733487 -23.870973 22.669570 -39.662529 -77.201826 -31.539300 9.289319 19.436627 12.718500 26.321322 -10.290981 33.534272 25.032223 7.196009 -106.752824 -14.776187 -34.638580
49.431276 90.746258 17.113679 30.484111 45.731484 89.369856 -32.192399 30.643985 34.016876 -5.470357 49.747031 1.206118 -21.121349 -2.253356 3.936933 1.701999 6.742200 -35.056168 112.070161 -85.487877 106.380053 -13.906284 -13.378000 -48.963830 -55.021443 -44.368950 -59.464235 -51.607096 48.175879 81.850917 132.153697 88.416375 157.394415 6.783063 182.953065 75.604457 -2.660579 -15.195458 44.451879 17.831903 3.450712 74.024422 -0.504483 48.558902 115.835323 -14.031761 23.148527 -16.338750 22.863739 -36.443741 -65.706953 -30.447959 8.321115 16.623734 10.787147 25.788037 -10.086853 34.797153 26.781368 5.445453 -108.115863 -15.376571 -34.079034
49.143328 92.264298 16.665170 30.410126 45.287279 92.092158 -34.173468 31.266072 36.690171 -4.165311 48.452327 -0.813222 -19.604175 -0.823651 3.394024 1.694974 18.209809 -32.223347 119.736194 -88.013688 105.032894 -5.731497 -13.019417 -48.723667 -56.406072 -44.019022 -66.738031 -51.552410 47.477611 80.900661 125.582617 86.864481 164.983957 8.246409 179.589688 74.371061 -5.184537 -17.214252 44.433331 14.288813 -1.039592 101.152977 40.863926 35.933997 41.760224 -8.558637 20.774738 -9.940239 22.049965 -34.022180 -57.346787 -29.925880 10.607131 13.723536 10.121259 24.227050 -9.553492 37.316090 28.069287 4.507279 -108.647293 -14.844889 -33.254688
48.878545 93.682326 16.331221 28.355954 44.839956 92.303477 -35.608034 29.669560 40.415069 -3.750394 47.719987 -2.540894 -17.977294 0.685163 3.201241 1.311458 26.760195 -29.491671 119.577788 -89.817192 99.092548 1.842475 -12.474734 -48.821444 -56.214438 -44.649595 -74.563017 -51.454714 47.443846 80.624550 119.700336 84.505006 171.776088 9.067856 175.796993 72.484522 -8.366964 -19.581871 43.043053 11.389235 -1.026540 112.228143 41.850874 29.697796 32.737701 -4.852910 17.436961 -3.425018 20.413649 -33.867595 -49.906901 -30.352503 9.106616 11.389590 8.939611 23.222700 -8.628751 39.446303 29.450317 3.715771 -108.874390 -14.440304 -32.323898
48.574838 94.911536 15.915701 26.207419 44.689197 92.219138 -36.602485 26.978043 43.828176 -2.782748 45.719941 -4.046347 -15.046628 2.001775 2.940427 0.833996 34.167417 -29.576836 118.720723 -89.073692 93.925579 7.500436 -10.689828 -49.865364 -54.855814 -45.398461 -84.317709 -51.498291 45.377673 82.609478 113.908725 82.793559 178.596142 7.441950 171.026161 67.582591 -12.753552 -22.718070 38.555906 9.024426 -1.705805 116.162762 42.467309 28.693512 30.582141 -3.973279 16.523203 -0.320271 21.214272 -33.181363 -44.611036 -30.594121 6.993028 9.252252 7.941640 22.763320 -7.598892 40.687925 31.331560 2.130037 -109.331207 -13.381815 -30.104684
48.334936 95.506743 15.496828 23.520438 43.552544 93.179469 -37.597671 26.631447 45.796353 -2.278825 45.018859 -7.098370 -13.968831 2.959725 3.207382 1.614085 38.335086 -30.617679 124.545836 -86.839319 97.636120 13.920989 -10.000261 -51.472056 -54.486506 -50.281923 -87.472266 -51.261089 44.762649 82.794740 109.073196 78.873850 183.518809 8.409909 168.359505 64.638253 -15.679061 -25.581565 36.370494 6.585209 -3.758195 113.681867 40.583553 27.640290 32.124815 -4.051842 18.314360 -0.868170 22.908839 -31.884354 -46.130237 -30.791476 5.000004 7.144255 8.012413 21.328734 -6.092355 41.299623 33.204387 0.989078 -111.323232 -9.663663 -32.763752
48.029584 95.687245 15.006597 22.655884 41.773775 95.525919 -39.437755 26.223459 47.194097 -0.659555 45.889985 -9.910838 -15.968742 3.512282 4.305670 4.956524 40.166235 -29.728955 133.434903 -84.584865 105.583475 19.385953 -10.019960 -50.423397 -53.070966 -54.345401 -90.818211 -49.429075 45.518990 82.094147 104.152182 74.483507 186.886434 14.081524 166.062977 66.403488 -16.211497 -26.912889 43.470602 5.018949 -4.022264 108.266148 38.630932 27.214861 30.542359 -6.223714 24.169036 -4.022861 26.968775 -30.418531 -52.019810 -30.014232 5.726303 5.732714 7.975521 19.752192 -4.333773 41.214441 35.007421 0.076792 -113.192791 -7.726437 -33.602792
47.625069 95.684699 14.603910 21.836262 39.940136 97.308735 -40.835696 26.313910 48.440648 0.807003 46.629148 -11.838982 -17.423594 3.718206 5.542363 10.098416 43.407768 -30.462784 143.804264 -81.345326 115.050561 23.110802 -8.951713 -48.228977 -51.385497 -58.161718 -92.578372 -48.188566 44.319212 81.578714 100.666729 70.501199 191.443550 14.975668 161.692735 61.467686 -16.153553 -26.958856 46.596876 3.187845 -3.385570 101.961125 37.312278 26.682730 27.878279 -10.714332 29.595941 -7.991968 30.103044 -30.574280 -58.160065 -27.717686 5.590707 2.857919 7.040987 18.966383 -4.600938 40.875803 34.565132 -1.478992 -114.350815 -6.465034 -34.545382
46.980304 95.755642 14.354353 21.611958 36.231367 100.507415 -39.808152 26.473769 49.273036 2.205545 48.424945 -12.119119 -19.156046 3.361041 7.059288 17.079349 45.845145 -31.789305 154.188747 -78.817282 126.477154 25.599848 -9.493227 -45.554578 -49.813724 -60.995638 -94.274567 -46.762716 43.064295 80.640970 98.507372 66.363183 195.394445 15.301931 156.630690 56.800464 -15.969232 -25.771081 48.984276 3.698957 -1.965195 95.152752 35.037842 26.863235 26.222179 -17.332630 34.484423 -11.329610 31.697293 -34.176252 -65.141761 -23.811416 6.970492 -0.755257 7.183136 18.247561 -5.324173 40.830683 33.533066 -2.796822 -115.465209 -7.197742 -33.452412
46.320729 95.903061 14.236296 22.070488 31.623260 103.202915 -36.667037 27.588614 49.699387 2.759668 50.855676 -12.290424 -20.677510 2.999773 8.718960 24.807623 49.745948 -34.206472 164.718427 -76.045141 137.466163 27.092184 -9.412999 -40.934802 -48.738901 -66.175524 -91.554451 -45.965305 40.984929 79.080005 97.051292 62.610049 199.799357 16.568077 151.437875 54.040129 -16.636019 -25.117881 46.165221 5.496806 -0.922767 88.581017 32.697926 26.685797 27.000088 -21.848124 38.061127 -12.488495 31.995044 -37.629189 -69.476951 -19.218182 8.056895 -4.226621 7.919368 17.651967 -6.248803 40.902263 32.648410 -4.160460 -116.414537 -7.000597 -33.357394
45.651159 95.848092 14.018504 21.981316 27.368575 105.768205 -33.530860 31.296982 49.447499 3.426507 49.876025 -12.463119 -20.311550 1.863675 10.218464 34.101157 53.102866 -38.312020 176.284191 -73.972130 146.724662 28.589871 -7.755191 -38.162029 -48.368084 -68.012162 -90.521276 -47.608358 37.878351 77.181506 98.337410 58.985596 203.780033 13.628244 146.972188 46.994475 -16.838027 -22.805554 40.129335 5.998028 -0.305055 80.711703 30.450360 24.687140 29.034936 -25.651165 41.112145 -12.489554 34.228335 -30.208229 -61.444594 -15.087760 8.678455 -7.199645 9.132372 16.168156 -7.195685 41.174119 31.262592 -4.709210 -117.301997 -7.614449 -32.964791
45.009617 95.549916 13.747190 23.059646 24.478864 109.124792 -30.794089 34.484303 47.983879 4.926659 48.299628 -13.168175 -20.172634 -1.188791 11.981612 41.799856 56.342056 -40.872385 185.048362 -73.866624 156.285588 30.078504 -5.181169 -35.213600 -48.679216 -70.363680 -87.574944 -50.209038 36.897655 77.104182 100.621479 56.971793 205.516472 13.706231 143.971222 44.501725 -17.853822 -22.417432 37.085899 5.571968 1.278125 71.942943 28.690111 22.104376 31.764638 -29.261289 43.703918 -12.694522 30.097440 -39.510428 -72.134031 -12.387059 10.548563 -9.231681 10.638964 14.642911 -7.837492 41.704657 29.807594 -4.502563 -118.061705 -8.355512 -33.000657
44.404687 95.098513 13.427336 27.040094 25.295481 113.195175 -24.604268 30.991194 43.601455 8.221012 45.401931 -15.004360 -20.893834 -8.320096 14.422938 50.015092 59.859286 -44.930890 193.222090 -74.262912 163.805107 30.770634 -1.376349 -35.338927 -49.209846 -70.118196 -87.606042 -53.170980 38.900099 80.406189 105.578694 56.475061 203.410547 13.398339 141.878807 42.374562 -19.020144 -22.396511 35.901223 3.342393 6.419382 63.346924 28.008763 19.428661 36.068819 -31.092100 45.982056 -11.407800 33.860048 -28.978888 -60.010404 -12.534726 16.466954 -10.195092 12.626755 13.366011 -8.652943 41.888235 28.141923 -4.555966 -118.590553 -8.916609 -32.830694
44.093026 94.680556 13.073098 28.302921 24.246357 116.256814 -19.172701 31.361821 40.379733 8.923889 44.190610 -16.708963 -21.767255 -11.353317 16.995176 55.518639 62.370501 -47.994916 200.741486 -74.130072 171.249781 32.034813 0.921851 -35.221971 -49.714867 -70.710961 -86.764125 -55.000044 40.180415 82.370599 108.825739 56.968443 202.489250 13.577459 138.924094 41.084773 -20.723477 -23.333333 34.640144 2.824310 9.462096 54.353689 26.322823 17.443260 40.493009 -32.705353 48.023166 -11.083645 33.198998 -29.192676 -60.821899 -11.829870 19.155817 -11.166175 15.423517 11.690343 -9.512354 41.781777 26.542016 -4.634434 -118.880658 -9.375673 -32.536921
